<svg width="171" height="89" viewBox="0 0 171 89" fill="none" xmlns="http://www.w3.org/2000/svg">
<g clip-path="url(#clip0_1_34)">
<path d="M113.089 18.8118V39.5942H125.757V27.8962H138.509C145.169 27.8962 150.85 24.1128 153.052 18.8118H113.089Z" fill="white"/>
<path d="M149.174 3.67803C146.697 1.40166 143.399 0 139.763 0H112.499C112.552 1.06442 112.71 2.09722 112.942 3.0984C112.994 3.31972 113.047 3.55157 113.11 3.76235C113.131 3.85719 113.163 3.9415 113.184 4.02581C115.45 11.2027 122.153 16.4089 130.078 16.4089H153.474C153.621 15.6079 153.706 14.7859 153.706 13.9428C153.706 9.87484 151.956 6.21788 149.174 3.6675" fill="white"/>
<path d="M90.6307 4.1839L81.757 23.4066H80.8612V0H68.2568V39.6047H78.9537C81.7676 39.6047 84.3179 37.9712 85.4877 35.4208L94.3614 16.1981H95.2572V39.6047H107.862V0H97.1647C94.3614 0 91.8005 1.63351 90.6307 4.1839Z" fill="white"/>
<path d="M31.9619 5.20616L37.2102 23.4066H38.106L43.3543 5.20616C44.2501 2.11829 47.0639 0 50.2783 0H62.8616V39.6047H50.2572V16.1981H49.3509L42.1529 39.5942H33.1528L25.9548 16.1981H25.059V39.5942H12.4546V0H25.0379C28.2522 0 31.0661 2.11829 31.9619 5.20616Z" fill="white"/>
<path d="M141.597 52.7362C142.936 52.9785 144.179 53.1999 145.423 53.4106C145.56 53.4317 145.739 53.4001 145.855 53.3263C148.258 52.009 150.639 50.6706 153.053 49.3532C153.706 48.9949 154.201 48.5206 154.602 47.8778C155.477 46.4867 156.362 45.0955 157.342 43.7782C158.491 42.2395 159.408 42.1447 160.946 43.3039C161.305 43.5674 161.631 43.8941 161.905 44.2524C162.443 44.948 162.59 45.6963 162.127 46.5183C161.041 48.468 159.945 50.4176 158.902 52.3884C157.542 54.9598 156.604 57.6894 156.246 60.5875C156.151 61.3358 156.246 62.1473 156.415 62.8955C156.657 63.8967 157.458 64.4342 158.459 64.2129C159.344 64.0232 160.23 63.6965 161.01 63.2433C162.306 62.4845 163.518 61.5677 164.761 60.7246C164.898 60.6297 165.046 60.5454 165.32 60.3768C165.362 60.7562 165.467 61.0513 165.394 61.2936C165.151 62.063 164.962 62.885 164.54 63.5595C163.36 65.4354 161.758 66.9003 159.713 67.775C157.395 68.7762 155.192 68.3019 153.158 66.9319C152.146 66.2469 151.841 65.0876 151.514 64.0021C150.945 62.0946 151.145 60.166 151.44 58.2374C151.556 57.5102 151.693 56.783 151.841 55.9294C151.124 56.2877 150.513 56.6671 149.86 56.899C148.648 57.3205 148.11 58.1109 147.794 59.3651C147.362 61.1145 146.719 62.8428 145.939 64.4764C145.18 66.0783 143.863 67.2586 142.071 67.6169C139.89 68.0595 137.982 67.3956 136.496 65.7199C135.938 65.0981 135.516 64.3499 135.031 63.6438C134.81 63.981 134.568 64.3815 134.294 64.7609C133.177 66.3101 131.986 67.7961 130.415 68.9237C126.906 71.4425 123.323 69.7352 121.784 66.9003C120.857 65.193 120.509 63.3276 120.383 61.4096C120.361 61.0934 120.383 60.7667 120.383 60.4505C120.33 60.4505 120.288 60.4295 120.235 60.4189C120.13 60.5876 120.035 60.7562 119.929 60.9353C118.991 62.5161 118.032 64.0864 116.683 65.3616C116.178 65.8464 115.598 66.289 114.987 66.6263C113.564 67.3956 112.236 67.1954 111.087 66.0572C109.665 64.645 109.064 62.8639 108.948 60.9037C108.927 60.6402 108.937 60.3873 108.927 60.1238C108.927 60.1238 108.906 60.1133 108.916 60.1238C108.432 60.9986 108.01 61.8944 107.462 62.7269C106.303 64.4974 104.827 65.9202 102.698 66.4366C100.306 67.0162 98.209 66.3839 96.5649 64.5501C95.1422 62.9693 95.2897 60.3873 96.86 58.954C97.2921 58.5536 97.9139 58.269 98.4935 58.1215C99.4631 57.8791 100.211 58.2796 100.717 59.1543C100.97 59.6074 101.149 60.1028 101.402 60.5559C101.771 61.1988 102.256 61.3463 102.814 60.8721C103.362 60.4084 103.868 59.8604 104.269 59.2702C105.902 56.8674 107.019 54.1905 108.084 51.5031C108.822 49.6378 109.464 47.7302 110.192 45.8649C110.444 45.2325 110.761 44.5897 111.161 44.0417C111.656 43.3566 112.226 43.3356 112.921 43.8098C113.079 43.9152 113.227 44.0417 113.374 44.1576C114.818 45.3379 115.471 46.6764 114.723 48.605C113.596 51.5031 112.731 54.5067 112.152 57.5735C111.973 58.5219 111.846 59.4915 111.878 60.4505C111.92 61.8838 112.942 62.4424 114.165 61.673C115.029 61.125 115.84 60.4295 116.515 59.6496C118.633 57.1941 120.541 54.5699 121.774 51.5347C122.417 49.9539 122.88 48.2888 123.544 46.708C123.934 45.77 124.451 44.8637 125.041 44.0522C125.958 42.7875 127.001 42.7243 128.192 43.7466C129.309 44.7056 129.794 45.8965 129.256 47.3192C128.835 48.4469 128.35 49.564 127.802 50.6389C126.664 52.8732 125.431 55.0652 124.693 57.4891C124.229 59.0383 123.797 60.5875 123.903 62.2211C124.05 64.5817 125.41 65.6356 127.749 65.2246C129.045 65.0033 130.184 64.4131 131.227 63.6438C132.249 62.8955 133.208 62.0735 134.188 61.2726C134.315 61.1672 134.441 60.9564 134.431 60.8089C134.241 58.8065 134.715 56.8884 135.19 54.9704C136.043 51.5031 137.382 48.2256 139.142 45.1272C139.384 44.6951 139.721 44.3051 140.058 43.9468C140.396 43.5885 140.838 43.5253 141.302 43.7466C142.503 44.3157 143.42 45.1904 143.958 46.4129C144.105 46.7396 144.148 47.2244 144.011 47.5511C143.568 48.6787 143.041 49.7642 142.525 50.8603C142.229 51.5031 141.903 52.1249 141.587 52.7572L141.597 52.7362ZM139.184 61.2515C139.215 61.4728 139.215 61.8944 139.321 62.2948C139.532 63.1169 140.016 63.2855 140.628 62.7164C142.008 61.4201 142.978 59.8709 143.431 58.0161C143.515 57.6472 143.431 57.3732 143.125 57.2257C142.619 56.9727 142.103 56.7198 141.566 56.5512C140.775 56.3088 140.554 56.4247 140.143 57.173C139.479 58.3849 139.247 59.7128 139.184 61.262V61.2515ZM30.4973 65.7199C30.6132 65.5724 30.7397 65.4354 30.8556 65.2878C32.9001 62.8428 34.9236 60.3662 37.0208 57.9739C37.6847 57.2151 38.5489 56.625 39.3815 56.0453C39.9506 55.6449 40.5934 55.6765 41.2574 55.9505C43.1122 56.7304 43.9342 58.2058 43.8815 60.1028C43.8394 61.789 43.5654 63.4752 43.3546 65.1508C43.2492 66.0256 43.0384 66.8792 42.8804 67.7434C42.9331 67.7961 42.9963 67.8488 43.049 67.8909C43.1333 67.7539 43.1965 67.5958 43.2914 67.4694C44.6509 65.8042 46.0209 64.1497 47.3804 62.4845C47.9706 61.7574 48.5397 61.0091 49.1404 60.2925C49.4671 59.9131 49.8149 59.5547 50.1943 59.2175C52.1861 57.4575 53.6931 57.7842 55.4426 59.7761C56.0644 60.4927 56.1487 61.399 55.9379 62.2843C55.5164 64.0548 55.0421 65.8042 54.61 67.5642C54.5152 67.9331 54.4625 68.3125 54.473 68.6919C54.5046 69.3347 54.8419 69.5771 55.4426 69.3664C56.2225 69.0923 57.0129 68.7973 57.7506 68.4073C60.2061 67.1111 62.6406 65.7832 65.0645 64.4447C65.2963 64.3183 65.486 64.0443 65.5914 63.7913C67.1617 60.0817 69.0482 56.5407 71.3983 53.2631C71.8515 52.6202 72.4733 52.0828 73.0634 51.5664C73.6009 51.0921 74.2438 50.9973 74.9077 51.324C76.2461 51.9879 77.5319 52.7783 77.827 54.3486C78.0061 55.2865 78.5331 55.8029 79.2075 56.2877C79.9347 56.8252 80.683 57.3311 81.4101 57.858C83.5074 59.4072 84.0343 60.8932 83.4231 63.4225C83.1385 64.5817 82.6537 65.6567 81.9266 66.5947C79.9663 69.1134 77.8902 71.5373 75.4347 73.5924C74.307 74.5409 73.0529 75.2891 71.5669 75.4894C70.9241 75.5737 70.218 75.6264 69.6173 75.4472C68.5528 75.1311 67.4673 74.7411 66.5188 74.172C65.0434 73.2868 64.5481 71.7692 64.4638 70.1251C64.4216 69.3558 64.4638 68.5865 64.4638 67.775C64.2635 67.9647 64.0633 68.1649 63.842 68.3546C61.2916 70.5572 58.5831 72.5385 55.5058 73.9613C55.0632 74.172 54.5468 74.2774 54.0515 74.3301C52.7025 74.4566 51.6486 73.8453 51.0374 72.6334C50.4788 71.5268 50.3207 70.3148 50.3207 69.1029C50.3207 67.8804 50.4261 66.6473 50.4894 65.4249C50.4894 65.2668 50.5104 65.1192 50.521 64.8874C50.384 64.9928 50.2997 65.0455 50.2259 65.1192C48.6451 66.8054 47.0537 68.4706 45.5045 70.1778C44.9143 70.8312 44.419 71.569 43.8921 72.2751C43.7867 72.4121 43.6813 72.5491 43.597 72.7071C42.659 74.3933 41.1415 74.699 39.4026 74.446C38.2117 74.2669 37.7374 73.761 37.8217 72.5596C37.9798 70.3465 38.1801 68.1439 38.4119 65.9412C38.5384 64.7293 38.7597 63.5279 38.8651 62.2738C38.2117 63.0536 37.5477 63.823 36.9049 64.6134C33.954 68.3019 31.3826 72.2434 28.8216 76.206C28.4949 76.7013 28.105 77.1861 27.6413 77.5655C25.8392 79.0515 24.3426 78.6721 23.1623 76.3852C22.6564 75.4051 22.7091 74.2985 22.8883 73.2236C23.3309 70.5783 24.3005 68.0912 25.1752 65.5724C26.1975 62.6321 27.2935 59.7128 28.3052 56.7725C28.7268 55.5605 29.0113 54.317 29.3696 53.0839C29.454 52.7994 29.5699 52.5254 29.6963 52.2619C30.1917 51.2713 30.9083 51.0078 31.9306 51.461C32.858 51.872 33.5746 52.5254 34.1859 53.3369C34.5547 53.8322 34.481 54.3591 34.3229 54.8755C34.0805 55.6976 33.7749 56.5196 33.4798 57.3205C32.5207 59.9131 31.5512 62.5056 30.5816 65.0981C30.5184 65.2668 30.4868 65.4565 30.4446 65.6356C30.4657 65.6462 30.4868 65.6567 30.5078 65.6672L30.4973 65.7199ZM75.9194 59.228C75.2344 59.2491 74.6442 59.4494 74.1173 59.8604C73.2215 60.5454 72.526 61.4096 71.9674 62.3686C70.6817 64.5607 69.8386 66.9424 69.1114 69.3664C68.9849 69.7774 68.9112 70.2095 68.9006 70.6415C68.8795 71.4109 69.2695 71.6743 69.9545 71.3476C70.4182 71.1263 70.8819 70.8629 71.2824 70.5467C73.9803 68.4495 76.2778 65.9623 78.2274 63.1485C78.6385 62.5583 78.9651 61.8944 79.2392 61.2304C79.5448 60.4716 79.2075 59.9025 78.4171 59.7234C77.5951 59.5442 76.752 59.3967 75.9194 59.2386V59.228ZM11.0532 68.1649C9.61997 70.2095 7.82838 71.8746 5.64685 73.0971C4.25573 73.877 3.01215 73.5819 2.03205 72.3067C1.72642 71.9062 1.46295 71.4741 1.16787 71.0736C0.79901 70.5783 0.525002 70.6099 0.272071 71.1685C0.145606 71.4636 0.0296793 71.8008 0.0402181 72.117C0.0612957 72.802 0.092912 73.5081 0.261533 74.172C0.830627 76.4273 2.79084 77.8501 5.11991 77.7552C7.2909 77.6709 9.20896 76.87 10.9689 75.658C14.3519 73.3289 16.7547 70.1673 18.5569 66.5209C20.0955 63.4119 21.0756 60.1449 20.9386 56.6355C20.8648 54.7174 20.5381 52.8521 19.6529 51.1237C18.2934 48.4679 15.9222 47.2876 12.9818 47.7829C11.3378 48.0675 9.82021 48.6998 8.39747 49.5324C6.55318 50.6179 4.91967 51.9352 3.80256 53.8006C2.76976 55.5184 2.98054 56.899 4.44543 58.2585C4.6562 58.4587 4.8986 58.6379 5.14099 58.796C6.15271 59.4283 6.89043 59.2913 7.39629 58.2269C8.22885 56.488 9.59889 55.2655 11.1586 54.2327C12.2125 53.5266 13.3191 52.9048 14.6154 52.7467C15.7535 52.6097 16.565 53.1472 16.8496 54.2221C16.9233 54.5172 16.976 54.8334 16.976 55.1495C17.0182 57.4154 16.2805 59.5021 15.3952 61.5466C15.2371 61.9049 15.0264 62.0524 14.6259 62.0946C11.6856 62.4424 8.74525 62.8007 5.80493 63.2012C5.14099 63.296 4.49812 63.5384 3.87633 63.7913C3.64448 63.8862 3.35993 64.1918 3.3494 64.4131C3.28616 65.4775 3.40209 66.5314 3.90795 67.4904C4.26627 68.1755 4.83536 68.5759 5.62577 68.5232C6.35295 68.4706 7.08012 68.4389 7.78622 68.2809C8.99818 68.0174 10.1996 67.6591 11.5275 67.3113C11.3273 67.6485 11.2008 67.9225 11.0427 68.1544L11.0532 68.1649ZM13.7723 88.9158C13.7723 88.9158 32.6577 86.9767 46.3265 84.9005C60.0059 82.8349 104.553 79.9157 132.639 78.5983C160.725 77.281 172.708 78.7775 170.79 75.521C168.861 72.2645 166.469 71.8113 108.284 75.1943C50.0889 78.5772 11.812 87.2612 11.812 87.2612C8.54501 89.5903 13.7723 88.9158 13.7723 88.9158Z" fill="white"/>
</g>
<defs>
<clipPath id="clip0_1_34">
<rect width="170.95" height="89" fill="white" transform="translate(0.050293)"/>
</clipPath>
</defs>
</svg>
