<svg width="48" height="115" viewBox="0 0 48 115" fill="none" xmlns="http://www.w3.org/2000/svg">
<g clip-path="url(#clip0_1_307)">
<path d="M37.6201 96.1143L39.0501 96.8643L33.1701 108.104C33.0701 108.304 32.9701 108.444 32.8701 108.544L32.9001 108.584C33.0401 108.614 33.2101 108.674 33.3901 108.774L39.7001 112.074C39.9001 112.174 40.0401 112.274 40.1401 112.374H40.1901C40.2101 112.244 40.2701 112.074 40.3801 111.884L46.2601 100.644L47.6901 101.394L40.8801 114.424L30.8101 109.164L37.6201 96.1343V96.1143Z" fill="#205BD7"/>
<path d="M23.6598 96.9447C23.3698 96.1447 23.3298 95.3147 23.5098 94.4547C23.6998 93.5947 24.1098 92.7747 24.7498 91.9947C25.3898 91.2147 26.1198 90.6547 26.9298 90.3047C27.7398 89.9547 28.5698 89.8447 29.3998 89.9747C30.2398 90.1047 31.0098 90.4647 31.7298 91.0547C32.4498 91.6547 32.9398 92.3447 33.1798 93.1247C33.4198 93.9047 33.4198 94.7347 33.1598 95.6147L33.2399 95.6547C33.4599 95.1647 33.8398 94.5947 34.3898 93.9347L37.1999 90.5347L38.3698 91.4947L29.5198 102.215L28.3898 101.275C29.0898 100.425 29.6198 99.8547 29.9698 99.5847L29.9198 99.5147C29.0998 99.9447 28.2798 100.115 27.4598 100.035C26.6398 99.9547 25.8798 99.6147 25.1498 99.0147C24.4398 98.4247 23.9398 97.7347 23.6498 96.9347L23.6598 96.9447ZM28.0598 98.9347C28.6898 99.0447 29.3098 98.9847 29.9098 98.7547C30.5098 98.5147 31.0398 98.1247 31.4998 97.5747C32.1998 96.7247 32.5098 95.8147 32.4098 94.8447C32.3098 93.8747 31.8398 93.0347 30.9798 92.3347C30.1698 91.6647 29.3098 91.3947 28.4098 91.5247C27.5098 91.6547 26.6998 92.1547 25.9698 93.0247C25.2498 93.8947 24.9098 94.7947 24.9698 95.7047C25.0198 96.6247 25.4598 97.4147 26.2798 98.0947C26.8298 98.5447 27.4198 98.8347 28.0498 98.9447L28.0598 98.9347Z" fill="#205BD7"/>
<path d="M15.2801 86.7844C15.4401 85.5544 16.1301 84.4344 17.3201 83.4244L17.5601 83.2244L22.0701 88.5744C22.3901 88.9644 22.5901 89.2544 22.6501 89.4544L22.6901 89.4744L22.8101 89.2944C23.5701 88.5644 23.9701 87.7644 24.0301 86.9044C24.0801 86.0444 23.7801 85.2144 23.1101 84.4244C22.6901 83.9244 22.2101 83.5644 21.6701 83.3444C21.1401 83.1244 20.4701 83.0144 19.6801 83.0044L19.8101 81.6244C21.6301 81.5444 23.1001 82.1744 24.2401 83.5244C24.8801 84.2844 25.2801 85.0944 25.4501 85.9544C25.6201 86.8144 25.5401 87.6544 25.2101 88.4744C24.8901 89.2944 24.3301 90.0344 23.5501 90.6944C22.7601 91.3644 21.9301 91.7944 21.0701 91.9844C20.2101 92.1844 19.3701 92.1244 18.5601 91.8344C17.7501 91.5344 17.0301 91.0044 16.3901 90.2444C15.4801 89.1644 15.1101 88.0044 15.2701 86.7844H15.2801ZM19.5901 90.6344C20.3701 90.7444 21.1501 90.5444 21.9201 90.0244V89.9944C21.6901 89.8944 21.4301 89.6744 21.1401 89.3344L18.4701 86.1744C18.1001 85.7344 17.8801 85.3944 17.8001 85.1444H17.7701C17.1001 85.8044 16.7401 86.5044 16.7001 87.2444C16.6601 87.9844 16.9201 88.7044 17.5001 89.3844C18.1101 90.1144 18.8101 90.5344 19.5901 90.6444V90.6344Z" fill="#205BD7"/>
<path d="M19.91 81.0746L19.52 80.4247C19.46 80.3247 19.42 80.2447 19.38 80.1747C19.35 80.1047 19.33 80.0347 19.34 79.9647H19.31L19.22 80.0146C19.11 80.0746 18.97 80.1146 18.79 80.1246C17.78 80.1746 16.81 80.3246 15.89 80.5746C14.97 80.8246 14.01 81.2447 13 81.8547L11.29 82.8746L8.04004 77.4346L14.76 73.4146C14.95 73.2947 15.13 73.2346 15.28 73.2246V73.1946C15.22 73.1546 15.15 73.0946 15.09 73.0146C15.03 72.9346 14.97 72.8446 14.91 72.7346L14.61 72.2346L18.32 70.0146L19.04 71.2246L16.95 72.4746C16.79 72.5646 16.62 72.6346 16.43 72.6646V72.6946C16.54 72.7746 16.66 72.9246 16.8 73.1546L20.13 78.7246C20.27 78.9546 20.34 79.1347 20.36 79.2747H20.39C20.47 79.1447 20.61 79.0246 20.81 78.9146L22.9 77.6646L23.62 78.8746L19.91 81.0947V81.0746ZM18.22 78.2447L16.17 74.8147C16.11 74.7047 16.05 74.6047 16.01 74.5247C15.97 74.4347 15.94 74.3547 15.94 74.2747H15.91C15.83 74.4047 15.69 74.5247 15.5 74.6347L10.36 77.7047C10.17 77.8147 9.99004 77.8846 9.84004 77.8946V77.9247C9.90004 77.9647 9.97004 78.0247 10.03 78.1047C10.09 78.1847 10.15 78.2747 10.21 78.3847L11.47 80.4947C11.53 80.6047 11.59 80.7046 11.64 80.7946C11.69 80.8846 11.71 80.9646 11.7 81.0446H11.73C11.85 80.8946 11.99 80.7746 12.15 80.6846L12.8 80.2946C13.67 79.7746 14.68 79.3647 15.83 79.0647C16.99 78.7647 17.91 78.6646 18.6 78.7546V78.7246C18.5 78.6546 18.37 78.4947 18.22 78.2447Z" fill="#205BD7"/>
<path d="M11.7799 60.8843L12.2999 62.3043L3.18992 65.6443L2.66992 64.2243L11.7799 60.8843ZM7.90992 65.7943C8.21992 65.0443 8.81992 64.5043 9.69992 64.1743C10.5799 63.8543 11.3899 63.8843 12.1299 64.2643C12.8699 64.6443 13.4099 65.3043 13.7499 66.2443L15.2299 70.2843L6.11992 73.6243L5.59992 72.2043L8.47992 71.1443C8.69992 71.0643 8.88992 71.0343 9.04992 71.0443V71.0143C8.94992 70.9243 8.84992 70.7443 8.75992 70.4943L7.95992 68.3243C7.60992 67.3743 7.59992 66.5243 7.90992 65.7743V65.7943ZM11.5799 65.7043C11.1899 65.5043 10.7599 65.4943 10.2699 65.6743C9.77992 65.8543 9.44992 66.1443 9.27992 66.5443C9.10992 66.9443 9.11992 67.4243 9.31992 67.9743L10.0799 70.0443C10.1699 70.2943 10.2099 70.4843 10.1999 70.6243H10.2299C10.3399 70.5243 10.4999 70.4243 10.7299 70.3443L12.9399 69.5343C13.1099 69.4743 13.2899 69.4443 13.4899 69.4443V69.4143C13.4099 69.3143 13.3099 69.1443 13.2199 68.8943L12.4599 66.8243C12.2599 66.2843 11.9699 65.9143 11.5799 65.7143V65.7043Z" fill="#205BD7"/>
<path d="M10.0999 60.0345L9.9799 59.2845C9.9599 59.1745 9.9499 59.0845 9.9399 59.0045C9.9399 58.9245 9.9399 58.8545 9.9799 58.7945L9.9599 58.7745L9.8599 58.7945C9.7399 58.8145 9.5899 58.7945 9.4299 58.7345C8.4699 58.4145 7.5099 58.1945 6.5699 58.0945C5.6199 57.9845 4.5699 58.0345 3.4099 58.2245L1.4399 58.5545L0.399902 52.2945L8.1299 51.0145C8.3499 50.9745 8.5399 50.9845 8.6899 51.0245L8.7099 51.0045C8.6599 50.9445 8.6199 50.8645 8.5999 50.7645C8.5799 50.6745 8.5599 50.5545 8.5299 50.4345L8.4299 49.8545L12.6999 49.1445L12.9299 50.5345L10.5299 50.9345C10.3499 50.9645 10.1699 50.9645 9.9699 50.9245L9.9499 50.9445C10.0299 51.0645 10.0899 51.2445 10.1299 51.5145L11.1899 57.9145C11.2299 58.1745 11.2399 58.3745 11.1999 58.5045L11.2199 58.5245C11.3499 58.4345 11.5199 58.3645 11.7399 58.3345L14.1399 57.9345L14.3699 59.3245L10.0999 60.0345ZM9.5599 56.7845L8.9099 52.8445C8.8899 52.7145 8.8699 52.6045 8.8699 52.5145C8.8699 52.4145 8.8699 52.3345 8.8999 52.2545L8.8799 52.2345C8.7499 52.3245 8.5799 52.3945 8.3599 52.4245L2.4599 53.4045C2.2399 53.4445 2.0499 53.4345 1.8999 53.3945L1.8799 53.4145C1.9299 53.4745 1.9699 53.5545 1.9899 53.6545C2.0099 53.7545 2.0299 53.8645 2.0599 53.9845L2.4599 56.4045C2.4799 56.5245 2.4999 56.6445 2.5099 56.7445C2.5199 56.8445 2.5099 56.9345 2.4799 56.9945L2.4999 57.0145C2.6699 56.9145 2.8399 56.8545 3.0199 56.8245L3.7699 56.7045C4.7599 56.5345 5.8599 56.5245 7.0399 56.6745C8.2299 56.8145 9.1299 57.0545 9.7399 57.3945L9.7599 57.3745C9.6899 57.2745 9.6299 57.0745 9.5799 56.7845H9.5599Z" fill="#205BD7"/>
<path d="M14.02 45.9844L14.05 47.5644L9.12 45.5444L0.16 49.8444L0.13 48.1044L5.9 45.4744C6.35 45.2744 6.7 45.1244 6.96 45.0344C7.22 44.9444 7.52 44.8944 7.86 44.8744V44.7944C7.56 44.7744 7.29 44.7244 7.03 44.6544C6.77 44.5844 6.44 44.4644 6.03 44.3044L0.03 41.8644L0 40.2244L14.02 45.9844Z" fill="#205BD7"/>
<path d="M12.7498 26.0144C12.5298 25.9744 12.3598 25.9044 12.2398 25.8044L12.2198 25.8244C12.2498 25.9444 12.2398 26.1444 12.1898 26.4144L9.58982 39.3044L0.0698242 37.3844L0.369824 35.9044L8.02982 37.4444C8.24982 37.4844 8.41982 37.5544 8.53982 37.6544L8.55982 37.6344C8.52983 37.5144 8.53982 37.3144 8.58982 37.0444L9.31982 33.4444C9.37982 33.1744 9.43983 32.9844 9.51982 32.8844L9.49982 32.8544C9.34982 32.8944 9.15982 32.8944 8.93982 32.8544L1.27982 31.3144L1.57982 29.8344L9.23982 31.3744C9.45982 31.4144 9.62982 31.4844 9.74982 31.5844L9.76982 31.5644C9.73983 31.4444 9.74982 31.2444 9.79982 30.9744L10.5298 27.3744C10.5898 27.1044 10.6498 26.9144 10.7298 26.8144L10.7098 26.7944C10.5598 26.8344 10.3698 26.8344 10.1498 26.7944L2.48982 25.2544L2.78982 23.7744L10.4498 25.3144C10.6698 25.3544 10.8398 25.4244 10.9598 25.5244L10.9798 25.5044C10.9498 25.3844 10.9598 25.1844 11.0098 24.9144L11.1298 24.2944L15.3898 25.1544L15.1198 26.5144L12.7098 26.0344L12.7498 26.0144Z" fill="#205BD7"/>
<path d="M4.45996 19.5444L5.07996 18.1644L9.31996 20.0544C10.18 20.4344 10.91 20.8044 11.52 21.1544L11.56 21.1044C11.26 20.7544 10.95 20.2244 10.64 19.5044L7.55996 12.1744L7.72996 11.7944L16.75 15.8044L16.13 17.1844L11.89 15.2944C11.03 14.9144 10.3 14.5444 9.68996 14.2044L9.64996 14.2544C9.97996 14.6444 10.29 15.1844 10.57 15.8544L13.65 23.1844L13.48 23.5644L4.45996 19.5544V19.5444Z" fill="#205BD7"/>
<path d="M11.9799 1.95446C12.1199 2.69446 11.9599 3.41446 11.4799 4.12446C10.9999 4.83446 10.3899 5.25446 9.64988 5.40446C8.90988 5.54446 8.14988 5.35446 7.37988 4.83446L8.00988 3.89446C8.53988 4.23446 9.01988 4.36446 9.45988 4.29446C9.89988 4.22446 10.2699 3.96446 10.5699 3.52446C10.8699 3.08446 10.9699 2.64446 10.8799 2.20446C10.7899 1.76446 10.4899 1.36446 9.96988 0.994463L10.5899 0.0744629C11.3699 0.594463 11.8299 1.23446 11.9699 1.97446L11.9799 1.95446ZM9.82988 8.36446L10.6799 7.11446L14.5299 9.71446C15.3099 10.2445 15.9699 10.7245 16.5099 11.1745L16.5599 11.1345C16.3199 10.7345 16.1099 10.1545 15.9399 9.39446L14.1799 1.64446L14.4099 1.29446L22.5899 6.82446L21.7399 8.07446L17.8899 5.47446C17.1099 4.94446 16.4499 4.46446 15.9099 4.01446L15.8599 4.05446C16.1199 4.49446 16.3299 5.07446 16.4799 5.79446L18.2399 13.5445L17.9999 13.8945L9.81988 8.36446H9.82988Z" fill="#205BD7"/>
</g>
<defs>
<clipPath id="clip0_1_307">
<rect width="47.68" height="114.36" fill="white" transform="translate(0 0.0544434)"/>
</clipPath>
</defs>
</svg>
